<svg xmlns="http://www.w3.org/2000/svg" viewBox="0 0 64 64" fill="none">
  <defs>
    <linearGradient id="icon-bg" x1="10" y1="8" x2="55" y2="58" gradientUnits="userSpaceOnUse">
      <stop stop-color="#e7f7f1" />
      <stop offset="0.48" stop-color="#bde8dc" />
      <stop offset="1" stop-color="#2f7a67" />
    </linearGradient>
    <linearGradient id="icon-panel" x1="18" y1="15" x2="45" y2="50" gradientUnits="userSpaceOnUse">
      <stop stop-color="#ffffff" />
      <stop offset="1" stop-color="#effaf6" />
    </linearGradient>
    <linearGradient id="icon-line" x1="18" y1="24" x2="49" y2="24" gradientUnits="userSpaceOnUse">
      <stop stop-color="#7bc7b2" />
      <stop offset="1" stop-color="#2f7a67" />
    </linearGradient>
    <filter id="icon-shadow" x="4" y="5" width="56" height="57" filterUnits="userSpaceOnUse" color-interpolation-filters="sRGB">
      <feDropShadow dx="0" dy="3" stdDeviation="3" flood-color="#0f3d33" flood-opacity="0.18" />
    </filter>
  </defs>
  <rect x="6" y="6" width="52" height="52" rx="14" fill="url(#icon-bg)" />
  <path d="M47 8.8c6.5 2.2 11 8.3 11 15.2v18c0 8.8-7.2 16-16 16h-8.6L47 8.8Z" fill="#ffffff" opacity="0.2" />
  <g filter="url(#icon-shadow)">
    <path d="M19 19.5 32 13l13 6.5v20.8L32 47l-13-6.7V19.5Z" fill="url(#icon-panel)" stroke="#2f7a67" stroke-width="2" stroke-linejoin="round" />
    <path d="M19.8 20 32 26.5 44.2 20" stroke="#2f7a67" stroke-width="2" stroke-linecap="round" stroke-linejoin="round" />
    <path d="M32 26.5V46" stroke="#7bc7b2" stroke-width="2" stroke-linecap="round" />
  </g>
  <path d="M16 31h32" stroke="url(#icon-line)" stroke-width="3.2" stroke-linecap="round" />
  <path d="M13.8 25.2h6.8M43.4 25.2h6.8M13.8 36.8h6.8M43.4 36.8h6.8" stroke="#e9fffa" stroke-width="2.5" stroke-linecap="round" />
  <circle cx="16" cy="31" r="3.6" fill="#0f766e" stroke="#dff8f1" stroke-width="2" />
  <circle cx="48" cy="31" r="3.6" fill="#0f766e" stroke="#dff8f1" stroke-width="2" />
  <path d="M26 37.5h8.2M26 41.5h5.5" stroke="#2f7a67" stroke-width="2" stroke-linecap="round" opacity="0.88" />
</svg>
